<?xml version="1.0" standalone="no"?>
<!DOCTYPE svg PUBLIC "-//W3C//DTD SVG 20010904//EN"
 "http://www.w3.org/TR/2001/REC-SVG-20010904/DTD/svg10.dtd">
<svg version="1.0" xmlns="http://www.w3.org/2000/svg"
 width="800.000000pt" height="800.000000pt" viewBox="0 0 800.000000 800.000000"
 preserveAspectRatio="xMidYMid meet">
<metadata>
Created by potrace 1.11, written by Peter Selinger 2001-2013
</metadata>
<g transform="translate(0.000000,800.000000) scale(0.100000,-0.100000)"
fill="#000000" stroke="none">
<path d="M5928 6175 c-2 -2 -39 -6 -83 -9 -44 -4 -93 -9 -110 -11 -16 -2 -55
-7 -86 -10 -31 -3 -66 -7 -77 -10 -11 -2 -42 -7 -69 -10 -73 -11 -267 -53
-369 -80 -578 -156 -975 -415 -1156 -755 -99 -185 -123 -413 -63 -607 l26 -88
-41 -75 c-95 -172 -274 -553 -402 -855 -32 -77 -63 -149 -68 -160 -5 -11 -32
-76 -59 -145 -81 -206 -71 -199 -103 -68 -15 62 -30 129 -33 148 -3 19 -10 53
-16 75 -6 22 -12 47 -14 55 -17 84 -99 449 -191 850 -20 85 -38 166 -40 180
-3 14 -14 62 -24 108 -17 69 -18 91 -9 130 6 26 13 63 15 82 3 19 7 42 10 50
3 8 11 64 18 123 22 186 6 317 -44 362 -33 30 -84 35 -129 13 -33 -16 -43 -28
-57 -71 -33 -98 -21 -320 31 -572 9 -41 -128 -460 -209 -638 -8 -18 -29 -66
-46 -107 -106 -248 -264 -524 -387 -677 -211 -262 -423 -400 -697 -455 -101
-20 -353 -29 -421 -16 -315 63 -527 205 -624 419 -175 386 126 768 594 754
185 -5 341 -62 443 -162 81 -80 117 -87 155 -32 28 39 -9 102 -102 173 -149
113 -318 164 -531 160 -151 -3 -246 -26 -380 -91 -75 -37 -111 -63 -172 -123
-134 -132 -188 -250 -194 -420 -10 -284 121 -510 387 -672 114 -69 290 -130
419 -145 100 -12 358 -4 420 12 8 2 26 6 40 9 125 21 299 92 415 169 300 199
549 550 782 1102 30 72 61 144 68 160 7 17 32 83 55 148 27 72 46 113 51 105
4 -7 12 -35 17 -63 11 -59 84 -384 113 -505 12 -47 23 -94 25 -105 8 -43 13
-62 29 -130 9 -38 19 -81 21 -94 3 -13 34 -150 70 -305 35 -155 67 -293 69
-308 11 -62 31 -103 58 -118 24 -13 30 -13 54 0 16 9 34 33 44 60 10 25 52
131 93 235 85 216 194 480 237 573 16 35 29 65 29 67 0 2 16 39 36 82 20 43
49 105 64 138 32 69 141 292 188 382 l32 62 54 -54 c30 -29 81 -71 113 -93
l59 -40 -2 -258 c-2 -290 4 -366 45 -551 44 -195 84 -281 219 -466 48 -66 196
-143 348 -182 211 -55 291 -74 349 -84 33 -6 71 -13 85 -16 14 -3 43 -7 65
-10 22 -3 56 -8 75 -10 180 -24 617 -24 762 0 22 4 45 7 136 21 81 12 262 64
357 103 282 116 480 310 522 511 9 42 20 147 18 165 -2 11 -6 44 -10 73 -18
151 -109 268 -272 347 -64 31 -173 70 -222 80 -9 2 -34 8 -56 13 -65 18 -219
42 -355 57 -30 4 -66 8 -80 10 -14 2 -59 7 -100 10 -41 4 -82 9 -91 10 -8 2
-56 6 -105 9 -49 4 -105 9 -124 11 -19 2 -71 7 -115 10 -117 8 -265 22 -330
30 -60 7 -121 15 -170 20 -27 3 -61 8 -75 10 -14 3 -41 7 -60 10 -19 3 -46 7
-60 10 -14 3 -40 7 -57 10 -18 3 -63 12 -100 21 -38 9 -76 18 -86 20 -85 16
-326 108 -343 129 -12 15 15 188 56 360 47 203 153 542 228 730 22 56 21 78
-4 106 -30 33 -72 24 -119 -26 -91 -95 -323 -425 -465 -657 -29 -49 -54 -88
-56 -88 -6 0 3 201 10 229 51 213 219 417 468 569 297 182 692 304 1187 366
209 27 665 27 871 1 94 -11 136 -18 225 -36 109 -21 115 -23 255 -69 324 -108
525 -312 532 -541 0 -30 -2 -83 -5 -119 -8 -92 16 -129 85 -130 74 0 97 58 93
235 -1 89 -7 125 -29 189 -71 208 -256 385 -514 493 -85 35 -256 88 -317 99
-16 2 -37 7 -45 9 -49 14 -208 37 -345 51 -62 6 -601 14 -607 9z m-1491 -1033
c-5 -6 -17 -49 -73 -262 -14 -52 -53 -241 -58 -285 -10 -71 -19 -115 -25 -115
-10 0 -76 65 -117 116 -30 36 -36 49 -27 62 5 9 21 37 35 62 56 100 70 124
163 274 53 86 99 156 102 156 2 0 2 -3 0 -8z m35 -960 c99 -39 269 -91 348
-106 14 -3 70 -14 125 -24 55 -11 120 -23 145 -26 25 -3 54 -8 65 -10 11 -2
49 -7 85 -11 36 -4 72 -8 80 -10 8 -2 53 -6 100 -10 47 -4 92 -8 100 -10 8 -1
58 -6 110 -10 52 -3 111 -8 130 -10 19 -1 71 -6 115 -9 44 -4 100 -9 125 -11
44 -4 101 -9 225 -20 33 -3 71 -8 85 -10 14 -2 50 -7 80 -10 93 -11 291 -52
360 -75 207 -69 303 -175 303 -335 0 -212 -158 -397 -429 -503 -79 -31 -208
-69 -262 -78 -15 -2 -38 -7 -52 -9 -60 -12 -75 -14 -133 -20 -34 -3 -84 -8
-112 -11 -70 -8 -366 -7 -467 1 -120 9 -134 11 -373 51 -147 24 -366 95 -501
160 -50 24 -96 44 -102 44 -19 0 -71 78 -112 165 -36 76 -72 188 -85 264 -3
19 -7 37 -9 40 -2 3 -7 40 -11 81 -4 41 -9 84 -11 95 -7 33 -4 445 2 445 2 0
36 -13 76 -28z"/>
</g>
</svg>
